<svg width="49" height="73" viewBox="0 0 49 73" fill="none" xmlns="http://www.w3.org/2000/svg">
<g filter="url(#filter0_d_30_84)">
<path d="M12 69C6.4775 69 2 64.5865 2 59.1429C2 53.6992 6.4775 49.2857 12 49.2857H19.1425C20.72 49.2857 22 50.5474 22 52.1024V59.1429C22 64.5865 17.5225 69 12 69ZM37 19.7143H29.8575C28.28 19.7143 27 18.4526 27 16.8976V2.81668C27 1.26171 28.28 0 29.8575 0H37C42.5225 0 47 4.41354 47 9.85714C47 15.3007 42.5225 19.7143 37 19.7143ZM12 0H19.1425C20.72 0 22 1.26171 22 2.81668V16.8976C22 18.4526 20.72 19.7143 19.1425 19.7143H12C6.4775 19.7143 2 15.3007 2 9.85714C2 4.41354 6.4775 0 12 0ZM12 24.6429H19.1425C20.72 24.6429 22 25.9046 22 27.4595V41.5405C22 43.0954 20.72 44.3571 19.1425 44.3571H12C6.4775 44.3571 2 39.9436 2 34.5C2 29.0564 6.4775 24.6429 12 24.6429ZM37 24.6429C34.3478 24.6429 31.8043 25.6814 29.9289 27.5299C28.0536 29.3785 27 31.8857 27 34.5C27 37.1143 28.0536 39.6215 29.9289 41.4701C31.8043 43.3186 34.3478 44.3571 37 44.3571C39.6522 44.3571 42.1957 43.3186 44.0711 41.4701C45.9464 39.6215 47 37.1143 47 34.5C47 31.8857 45.9464 29.3785 44.0711 27.5299C42.1957 25.6814 39.6522 24.6429 37 24.6429Z" fill="#2877AB"/>
<path d="M12 49.4355H19.1426C20.6392 49.4356 21.8496 50.6325 21.8496 52.1025V59.1426C21.8496 64.5013 17.4417 68.8496 12 68.8496C6.5583 68.8496 2.15039 64.5013 2.15039 59.1426C2.15054 53.784 6.55839 49.4355 12 49.4355ZM12 24.793H19.1426C20.6392 24.793 21.8496 25.9899 21.8496 27.46V41.54C21.8496 43.0101 20.6392 44.207 19.1426 44.207H12C6.5583 44.207 2.15039 39.8587 2.15039 34.5C2.15039 29.1413 6.5583 24.793 12 24.793ZM37 24.793C39.6131 24.793 42.1187 25.816 43.9658 27.6367C45.8128 29.4573 46.8496 31.9262 46.8496 34.5C46.8496 37.0738 45.8128 39.5427 43.9658 41.3633C42.1187 43.184 39.6131 44.207 37 44.207C34.3869 44.207 31.8813 43.184 30.0342 41.3633C28.1872 39.5427 27.1504 37.0738 27.1504 34.5C27.1504 31.9262 28.1872 29.4573 30.0342 27.6367C31.8813 25.816 34.3869 24.793 37 24.793ZM12 0.150391H19.1426C20.6391 0.150431 21.8495 1.34646 21.8496 2.81641V16.8975C21.8496 18.3675 20.6392 19.5644 19.1426 19.5645H12C6.5584 19.5645 2.15054 15.216 2.15039 9.85742C2.15039 4.49868 6.5583 0.150391 12 0.150391ZM29.8574 0.150391H37C42.4417 0.150391 46.8496 4.49868 46.8496 9.85742C46.8495 15.216 42.4416 19.5645 37 19.5645H29.8574C28.3608 19.5644 27.1504 18.3675 27.1504 16.8975V2.81641C27.1505 1.34646 28.3609 0.150431 29.8574 0.150391Z" stroke="white" stroke-width="0.3"/>
</g>
<defs>
<filter id="filter0_d_30_84" x="0" y="0" width="49" height="73" filterUnits="userSpaceOnUse" color-interpolation-filters="sRGB">
<feFlood flood-opacity="0" result="BackgroundImageFix"/>
<feColorMatrix in="SourceAlpha" type="matrix" values="0 0 0 0 0 0 0 0 0 0 0 0 0 0 0 0 0 0 127 0" result="hardAlpha"/>
<feOffset dy="2"/>
<feGaussianBlur stdDeviation="1"/>
<feComposite in2="hardAlpha" operator="out"/>
<feColorMatrix type="matrix" values="0 0 0 0 0 0 0 0 0 0 0 0 0 0 0 0 0 0 0.25 0"/>
<feBlend mode="normal" in2="BackgroundImageFix" result="effect1_dropShadow_30_84"/>
<feBlend mode="normal" in="SourceGraphic" in2="effect1_dropShadow_30_84" result="shape"/>
</filter>
</defs>
</svg>
