<svg width="64" height="63" viewBox="0 0 64 63" fill="none" xmlns="http://www.w3.org/2000/svg">
<g filter="url(#filter0_d_30_83)">
<path d="M32 0C15.4325 0 2 13.2634 2 29.6224C2 43.503 11.68 55.1175 24.73 58.3315C24.59 57.9316 24.5 57.4675 24.5 56.8923V51.8294C23.2825 51.8294 21.2425 51.8294 20.73 51.8294C18.6775 51.8294 16.8525 50.958 15.9675 49.3386C14.985 47.5391 14.815 44.7866 12.38 43.1031C11.6575 42.5427 12.2075 41.9034 13.04 41.9898C14.5775 42.4193 15.8525 43.461 17.0525 45.0063C18.2475 46.5541 18.81 46.9046 21.0425 46.9046C22.125 46.9046 23.745 46.8429 25.27 46.6059C26.09 44.5497 27.5075 42.6563 29.24 41.7627C19.25 40.7481 14.4825 35.8407 14.4825 29.1781C14.4825 26.3097 15.72 23.535 17.8225 21.1973C17.1325 18.8769 16.265 14.1447 18.0875 12.3427C22.5825 12.3427 25.3 15.221 25.9525 15.9986C28.1925 15.2407 30.6525 14.8112 33.2375 14.8112C35.8275 14.8112 38.2975 15.2407 40.5425 16.0035C41.1875 15.2309 43.9075 12.3427 48.4125 12.3427C50.2425 14.1472 49.365 18.8991 48.6675 21.2146C50.7575 23.5474 51.9875 26.3146 51.9875 29.1781C51.9875 35.8357 47.2275 40.7407 37.2525 41.7602C39.9975 43.1747 42 47.149 42 50.1434V56.8923C42 57.1491 41.9425 57.3342 41.9125 57.5539C53.6025 53.508 62 42.5477 62 29.6224C62 13.2634 48.5675 0 32 0Z" fill="#2877AB"/>
<path d="M32 0.150391C48.4863 0.150391 61.8494 13.3479 61.8496 29.6221C61.8496 42.3913 53.6106 53.2337 42.1035 57.3262C42.1073 57.3057 42.1115 57.2847 42.1152 57.2627C42.1341 57.1525 42.1504 57.0325 42.1504 56.8926V50.1436C42.1504 48.6163 41.6403 46.849 40.7871 45.2871C40.0165 43.8765 38.9571 42.6199 37.7217 41.8555C42.5003 41.3017 46.0683 39.8415 48.4609 37.6953C50.9322 35.4786 52.1377 32.5454 52.1377 29.1777C52.1376 26.2958 50.9095 23.519 48.834 21.1777C49.1791 20.0116 49.5609 18.2737 49.6377 16.5938C49.677 15.7343 49.6368 14.8845 49.4688 14.1318C49.3009 13.3799 49.0026 12.7147 48.5176 12.2363L48.4736 12.1924H48.4121C43.9813 12.1925 41.2543 14.9451 40.4941 15.8291C38.2596 15.0814 35.8068 14.6611 33.2373 14.6611C30.6725 14.6612 28.2295 15.0812 26 15.8242C25.2338 14.937 22.5097 12.1925 18.0879 12.1924H18.0254L17.9824 12.2363C17.4994 12.7139 17.2021 13.3773 17.0342 14.127C16.8662 14.8774 16.8253 15.725 16.8633 16.582C16.9376 18.2571 17.314 19.9911 17.6553 21.1592C15.5672 23.5054 14.3321 26.2906 14.332 29.1777C14.332 32.5479 15.5397 35.4828 18.0146 37.7002C20.4108 39.8469 23.9841 41.3069 28.7695 41.8584C27.2022 42.8287 25.9323 44.5825 25.1641 46.4688C23.6739 46.6936 22.1016 46.7549 21.043 46.7549C19.9299 46.7549 19.2605 46.6661 18.7246 46.4014C18.1894 46.1369 17.7677 45.688 17.1709 44.915V44.9141C15.9601 43.355 14.6601 42.2871 13.0801 41.8457L13.0684 41.8418L13.0557 41.8408L12.8896 41.832C12.5075 41.8323 12.1729 41.9742 12.0039 42.2188C11.9046 42.3626 11.8669 42.5376 11.916 42.7197C11.9521 42.8534 12.0323 42.9826 12.1533 43.1035L12.2881 43.2217L12.2949 43.2266C13.4794 44.0456 14.1161 45.1256 14.5801 46.2354C14.8129 46.7922 14.9999 47.3515 15.1934 47.8926C15.3857 48.4304 15.5843 48.9492 15.8359 49.4102C16.7539 51.0899 18.6386 51.9795 20.7305 51.9795H24.3496V56.8926C24.3496 57.3643 24.4111 57.7649 24.5088 58.1191C11.6532 54.8323 2.15039 43.339 2.15039 29.6221C2.15059 13.3479 15.5137 0.150391 32 0.150391Z" stroke="white" stroke-width="0.3"/>
</g>
<defs>
<filter id="filter0_d_30_83" x="0" y="0" width="64" height="62.3315" filterUnits="userSpaceOnUse" color-interpolation-filters="sRGB">
<feFlood flood-opacity="0" result="BackgroundImageFix"/>
<feColorMatrix in="SourceAlpha" type="matrix" values="0 0 0 0 0 0 0 0 0 0 0 0 0 0 0 0 0 0 127 0" result="hardAlpha"/>
<feOffset dy="2"/>
<feGaussianBlur stdDeviation="1"/>
<feComposite in2="hardAlpha" operator="out"/>
<feColorMatrix type="matrix" values="0 0 0 0 0 0 0 0 0 0 0 0 0 0 0 0 0 0 0.25 0"/>
<feBlend mode="normal" in2="BackgroundImageFix" result="effect1_dropShadow_30_83"/>
<feBlend mode="normal" in="SourceGraphic" in2="effect1_dropShadow_30_83" result="shape"/>
</filter>
</defs>
</svg>
