<svg width="64" height="80" viewBox="0 0 64 80" fill="none" xmlns="http://www.w3.org/2000/svg">
<g filter="url(#filter0_d_30_82)">
<path d="M36.8726 0C41.0764 9.60488 21.801 15.5364 20.0096 23.5376C18.3674 30.8901 31.4626 39.4337 31.4745 39.4337C29.4861 36.3912 28.0231 33.8854 26.0287 29.1507C22.6549 21.1437 46.576 13.8973 36.8726 0ZM49.6752 13.3018C49.6752 13.3018 32.7643 14.3749 31.9045 25.047C31.5223 29.7993 36.3531 32.2993 36.4904 35.7545C36.6039 38.5787 33.6242 40.9431 33.6242 40.9431C33.6242 40.9431 39.0462 39.9231 40.742 35.6129C42.623 30.8311 37.0756 27.6 37.6369 23.7734C38.1744 20.1119 49.6752 13.3018 49.6752 13.3018ZM23.1146 37.9714C23.1146 37.9714 7.63694 37.7533 7.63694 42.0752C7.63694 46.5916 27.8977 46.9277 42.3662 44.1506C42.3662 44.1506 46.2118 41.5386 47.2389 40.5657C37.7564 42.4761 16.1401 42.6884 16.1401 41.0374C16.1401 39.5162 23.1146 37.9714 23.1146 37.9714ZM52.8758 37.9714C51.3591 38.0893 49.7229 38.6672 48.242 39.7167C51.7293 38.9738 54.6911 41.1082 54.6911 43.5374C54.6911 49.0091 46.6656 54.1506 46.6656 54.1506C46.6656 54.1506 59.086 52.7591 59.086 43.7733C59.086 39.6931 56.2138 37.712 52.8758 37.9714ZM19.3885 46.3676C17.0119 46.3676 13.465 48.2072 13.465 49.9525C13.465 53.4607 31.3312 56.1611 44.5637 51.0374L39.9777 48.2544C31.0088 51.0904 14.492 50.1647 19.3885 46.3676ZM21.586 54.2449C18.3316 54.2449 16.1879 56.1847 16.1879 57.6411C16.1879 62.1458 35.6246 62.5998 43.3217 58.0184L38.449 54.9524C32.6986 57.3522 18.2659 57.7177 21.586 54.2449ZM10.742 58.3015C5.43949 58.1953 2 60.5479 2 62.4995C2 72.8768 56.2675 72.3992 56.2675 61.792C56.2675 60.029 54.2074 59.1741 53.449 58.7732C57.8857 68.9146 9.02229 68.1068 9.02229 62.1222C9.02229 60.7602 12.617 59.4571 15.949 60.0939L13.1306 58.4901C12.3006 58.3663 11.5004 58.3192 10.742 58.3015ZM62 65.2825C53.7476 73.0065 32.836 75.8072 11.793 71.0372C32.83 79.5395 61.8985 74.7695 62 65.2825Z" fill="#2877AB"/>
<path d="M61.8301 65.6377C61.6348 67.7802 59.8937 69.6922 57 71.2471C53.9534 72.8839 49.6719 74.1004 44.7275 74.7568C35.4125 75.9935 23.7807 75.2368 13.6934 71.6006C23.5767 73.6265 33.3481 74.0002 41.7109 72.9941C50.4231 71.9461 57.6267 69.3961 61.8301 65.6377ZM4.45312 59.7607C5.94958 58.956 8.10906 58.3987 10.7383 58.4512C11.4852 58.4686 12.2704 58.515 13.083 58.6348L15.1846 59.8311C13.7486 59.6825 12.3197 59.8583 11.1904 60.2158C10.5225 60.4274 9.95135 60.7045 9.54395 61.0225C9.1405 61.3374 8.87212 61.7133 8.87207 62.1221C8.87207 62.5519 9.09271 62.9428 9.46777 63.292C9.84215 63.6405 10.3823 63.9591 11.0537 64.25C12.3975 64.8321 14.3031 65.3171 16.5635 65.6973C21.0868 66.458 27.0657 66.8035 32.9033 66.6445C38.7391 66.4856 44.448 65.8228 48.4248 64.5596C50.4105 63.9288 51.9843 63.1423 52.9219 62.1787C53.3925 61.6949 53.7069 61.1618 53.8281 60.5781C53.9264 60.1046 53.8937 59.6068 53.7256 59.085C54.11 59.2795 54.6054 59.5367 55.0498 59.8896C55.6428 60.3606 56.1172 60.9764 56.1172 61.792C56.1172 63.0457 55.317 64.1734 53.8516 65.1689C52.3875 66.1634 50.2857 67.0072 47.749 67.6924C42.6778 69.0622 35.9077 69.7912 29.1318 69.8652C22.356 69.9392 15.5858 69.358 10.5146 68.1133C7.97801 67.4906 5.87668 66.7041 4.41309 65.7578C2.94779 64.8104 2.15059 63.7226 2.15039 62.5C2.15039 61.6097 2.94497 60.5718 4.45312 59.7607ZM21.2559 54.4014C20.9903 54.7546 20.8884 55.0933 20.9766 55.4111C21.0838 55.7975 21.4546 56.0831 21.9531 56.2959C22.9584 56.7249 24.6565 56.9298 26.6143 56.9512C30.5041 56.9937 35.5199 56.3111 38.4326 55.1191L43.0303 58.0117C41.1462 59.0806 38.5969 59.8677 35.8076 60.3779C32.9136 60.9073 29.7725 61.1387 26.8711 61.0869C23.9679 61.0351 21.3133 60.7002 19.3896 60.1016C18.4273 59.8021 17.6579 59.4396 17.1318 59.0215C16.6072 58.6043 16.3379 58.1428 16.3379 57.6406C16.3381 56.9815 16.8303 56.1724 17.7529 55.5195C18.6053 54.9165 19.8064 54.4618 21.2559 54.4014ZM52.8877 38.1211C54.5247 37.9939 56.0352 38.4172 57.1348 39.3594C58.2321 40.2997 58.9355 41.7706 58.9355 43.7734C58.9355 48.1804 55.8952 50.7353 52.8115 52.1963C51.2716 52.9258 49.7299 53.3772 48.5723 53.6465C48.0579 53.7661 47.6195 53.8475 47.292 53.9033C47.489 53.7645 47.7331 53.5905 48.0098 53.3818C48.7657 52.8117 49.7742 51.9933 50.7832 51.0029C51.7918 50.0129 52.8043 48.847 53.5654 47.5811C54.3262 46.3156 54.8408 44.9414 54.8408 43.5371C54.8407 42.259 54.0628 41.0751 52.8545 40.3105C51.8033 39.6454 50.4188 39.2913 48.9062 39.458C50.2062 38.6637 51.5935 38.2217 52.8877 38.1211ZM18.9619 46.5361C18.5598 46.9174 18.3491 47.2897 18.3496 47.6553C18.3503 48.1206 18.6895 48.4963 19.2041 48.793C20.2363 49.3878 22.1529 49.7724 24.4727 49.9482C29.1022 50.2991 35.453 49.8259 39.9561 48.417L44.2217 51.0049C37.6946 53.4643 30.0799 54.0471 24.0635 53.582C21.0114 53.3461 18.3788 52.8422 16.5137 52.1816C15.5802 51.851 14.8472 51.4834 14.3506 51.0977C13.8513 50.7098 13.6152 50.3226 13.6152 49.9521C13.6153 49.5671 13.812 49.1594 14.1689 48.7559C14.5247 48.3537 15.0279 47.9694 15.6104 47.6357C16.6378 47.0473 17.8885 46.6279 18.9619 46.5361ZM21.8506 38.127C21.2126 38.2936 20.3965 38.5221 19.5801 38.792C18.7058 39.081 17.824 39.4199 17.1582 39.7852C16.8258 39.9676 16.5397 40.1607 16.335 40.3623C16.1325 40.5617 15.9904 40.7883 15.9902 41.0371C15.9902 41.2294 16.1452 41.3636 16.3125 41.4561C16.4904 41.5543 16.7426 41.6395 17.0518 41.7148C17.6728 41.8661 18.5637 41.9867 19.6533 42.0781C21.8348 42.2611 24.8387 42.3299 28.1357 42.2871C34.48 42.2048 41.929 41.7074 46.7188 40.8164C46.115 41.3113 45.1873 41.9913 44.3301 42.6006C43.786 42.9873 43.2736 43.3437 42.8975 43.6035C42.7095 43.7333 42.5562 43.8399 42.4492 43.9131C42.3957 43.9497 42.3535 43.9777 42.3252 43.9971C42.3191 44.0012 42.3134 44.0045 42.3086 44.0078C35.0916 45.3902 26.4348 45.9988 19.582 45.6982C16.1502 45.5477 13.1797 45.1699 11.0713 44.5518C10.0164 44.2424 9.18764 43.8756 8.62598 43.4551C8.06563 43.0355 7.78712 42.5756 7.78711 42.0752C7.78711 41.5852 8.00479 41.1523 8.40625 40.7656C8.81011 40.3767 9.39513 40.0399 10.1113 39.75C11.544 39.1701 13.4636 38.7941 15.3945 38.5518C17.323 38.3097 19.2528 38.2013 20.7012 38.1543C21.1311 38.1403 21.5185 38.1322 21.8506 38.127ZM47.7891 14.2969C46.7008 14.9936 45.2431 15.9614 43.7686 17.0439C42.2949 18.1259 40.8001 19.3253 39.6387 20.4863C39.058 21.0668 38.5576 21.6405 38.1846 22.1875C37.8127 22.7328 37.5602 23.2622 37.4883 23.752C37.3422 24.7482 37.5951 25.6983 38.0127 26.627C38.4285 27.5517 39.0189 28.477 39.5547 29.4102C40.634 31.2902 41.5152 33.237 40.6025 35.5576C39.7736 37.6645 38.0306 38.9753 36.4795 39.7607C35.7052 40.1528 34.9827 40.4121 34.4541 40.5732C34.3534 40.6039 34.2594 40.6295 34.1738 40.6533C34.1795 40.648 34.1857 40.6432 34.1914 40.6377C34.4729 40.3682 34.8478 39.9793 35.2188 39.5C35.9574 38.5456 36.6995 37.2127 36.6406 35.748C36.6048 34.8497 36.2643 34.0206 35.792 33.2158C35.3213 32.4137 34.7089 31.6187 34.125 30.7998C32.95 29.1517 31.8673 27.3772 32.0537 25.0586C32.4764 19.8156 36.8416 16.9111 41.1641 15.3135C43.32 14.5166 45.451 14.0506 47.0439 13.7842C47.8401 13.651 48.5013 13.5675 48.9629 13.5176C48.9906 13.5146 49.0177 13.5116 49.0439 13.5088C48.7314 13.7007 48.3011 13.9691 47.7891 14.2969ZM37.417 1.12109C39.2032 4.13534 39.3819 6.81363 38.6533 9.24902C37.8387 11.9714 35.886 14.4086 33.7158 16.6807C32.6312 17.8162 31.4984 18.9045 30.4297 19.9668C29.3631 21.027 28.3608 22.0607 27.5469 23.0791C25.9238 25.1099 25.013 27.126 25.8906 29.209C27.7516 33.6268 29.1533 36.1098 30.9463 38.8926C30.5952 38.6471 30.1098 38.2992 29.5381 37.8643C28.3378 36.951 26.7564 35.6581 25.2275 34.1367C23.6978 32.6145 22.2255 30.8688 21.2383 29.0518C20.3122 27.3473 19.8203 25.5932 20.0918 23.9062L20.1562 23.5703C20.5934 21.6179 22.1029 19.7734 24.0928 17.9453C26.0822 16.1176 28.5164 14.3356 30.7842 12.4863C33.0434 10.644 35.1322 8.73805 36.3906 6.68262C37.4485 4.95461 37.9216 3.11534 37.417 1.12109Z" stroke="white" stroke-width="0.3"/>
</g>
<defs>
<filter id="filter0_d_30_82" x="0" y="0" width="64" height="79.4588" filterUnits="userSpaceOnUse" color-interpolation-filters="sRGB">
<feFlood flood-opacity="0" result="BackgroundImageFix"/>
<feColorMatrix in="SourceAlpha" type="matrix" values="0 0 0 0 0 0 0 0 0 0 0 0 0 0 0 0 0 0 127 0" result="hardAlpha"/>
<feOffset dy="2"/>
<feGaussianBlur stdDeviation="1"/>
<feComposite in2="hardAlpha" operator="out"/>
<feColorMatrix type="matrix" values="0 0 0 0 0 0 0 0 0 0 0 0 0 0 0 0 0 0 0.25 0"/>
<feBlend mode="normal" in2="BackgroundImageFix" result="effect1_dropShadow_30_82"/>
<feBlend mode="normal" in="SourceGraphic" in2="effect1_dropShadow_30_82" result="shape"/>
</filter>
</defs>
</svg>
