<svg width="64" height="72" viewBox="0 0 64 72" fill="none" xmlns="http://www.w3.org/2000/svg">
<g filter="url(#filter0_d_30_81)">
<path d="M61.6173 0.475334C61.3397 0.172583 60.9497 0 60.5392 0H3.46085C3.05035 0 2.6603 0.172583 2.38274 0.475334C2.10518 0.778085 1.96932 1.18468 2.00584 1.59273L7.14803 59.2573C7.20209 59.8599 7.62135 60.3674 8.20277 60.5342L31.591 67.2225C31.721 67.259 31.8569 67.2781 31.9913 67.2781C32.1257 67.2781 32.2615 67.259 32.3915 67.2225L55.8002 60.5342C56.3816 60.3674 56.8009 59.8599 56.8549 59.2573L61.9942 1.59273C62.0307 1.18468 61.8934 0.778085 61.6173 0.475334ZM13.009 39.4951L23.2349 42.3354V13.1631H29.0783V51.1898L13.009 46.7275V39.4951ZM51.07 29.2513L49.5302 47.1678L34.9217 51.1898V44.4606L44.7825 41.7475L45.1477 36.2629L34.9217 38.0267V13.1631H52.4519L51.9479 19.0134H40.7651V30.7139L51.07 29.2513Z" fill="#2877AB"/>
<path d="M3.46094 0.150391H60.5391C60.9073 0.150391 61.2575 0.305191 61.5068 0.577148V0.576172C61.7546 0.847854 61.8774 1.2131 61.8447 1.5791L56.7051 59.2441C56.6565 59.7849 56.2805 60.24 55.7588 60.3896L32.3506 67.0781C32.2337 67.111 32.1115 67.1279 31.9912 67.1279C31.9311 67.1279 31.8706 67.1236 31.8105 67.1152L31.6318 67.0781L8.24414 60.3896C7.72242 60.24 7.34645 59.7849 7.29785 59.2441L2.15527 1.5791C2.12257 1.21288 2.24462 0.848425 2.49316 0.577148C2.74249 0.30519 3.09275 0.150391 3.46094 0.150391ZM23.085 42.1377L13.0488 39.3506L12.8594 39.2979V46.8418L12.9688 46.8721L29.0381 51.334L29.2285 51.3867V13.0127H23.085V42.1377ZM34.7715 38.2051L34.9473 38.1748L44.9854 36.4434L44.6396 41.6299L34.8818 44.3164L34.7715 44.3467V51.3867L34.9619 51.334L49.5703 47.3125L49.6709 47.2842L49.6797 47.1807L51.2197 29.2646L51.2354 29.0762L51.0488 29.1025L40.915 30.541V19.1631H52.0859L52.0977 19.0264L52.6016 13.1758L52.6152 13.0127H34.7715V38.2051Z" stroke="#FFF6F6" stroke-width="0.3"/>
</g>
<defs>
<filter id="filter0_d_30_81" x="0" y="0" width="64" height="71.278" filterUnits="userSpaceOnUse" color-interpolation-filters="sRGB">
<feFlood flood-opacity="0" result="BackgroundImageFix"/>
<feColorMatrix in="SourceAlpha" type="matrix" values="0 0 0 0 0 0 0 0 0 0 0 0 0 0 0 0 0 0 127 0" result="hardAlpha"/>
<feOffset dy="2"/>
<feGaussianBlur stdDeviation="1"/>
<feComposite in2="hardAlpha" operator="out"/>
<feColorMatrix type="matrix" values="0 0 0 0 0 0 0 0 0 0 0 0 0 0 0 0 0 0 0.25 0"/>
<feBlend mode="normal" in2="BackgroundImageFix" result="effect1_dropShadow_30_81"/>
<feBlend mode="normal" in="SourceGraphic" in2="effect1_dropShadow_30_81" result="shape"/>
</filter>
</defs>
</svg>
